ffmpeg started on 2026-04-01 at 12:47:23
Report written to "D:\Convert\FFMetrics\reports\ssim_report-6.txt"
Log level: 32
Command line:
ffmpeg -hide_banner -nostdin -r 24000/1001 -i "F:\\Convert\\files\\[DC] Make Heroine ga Oosugiru - 07_Telegram_HEVC(292).mkv" -r 24000/1001 -i "F:\\Convert\\files\\[DC] Make Heroine ga Oosugiru - 07_Telegram.mp4" -lavfi "[0:v]settb=AVTB,setpts=PTS-STARTPTS,format=pix_fmts=yuv420p10le,fps=24000/1001,scale=1920:1080:flags=lanczos:param0=3:out_range=limited:out_color_matrix=bt709:out_chroma_loc=left,setsar=1/1,setdar=(1920/1080)*(1/1),colorspace=format=yuv420p10:range=tv:primaries=bt709:trc=bt709:space=bt709:fast=0[main];[1:v]settb=AVTB,setpts=PTS-STARTPTS,format=pix_fmts=yuv420p,fps=24000/1001,scale=1920:1080:flags=lanczos:param0=3:out_range=limited:out_color_matrix=bt709:out_chroma_loc=left,setsar=1/1,setdar=(1920/1080)*(1/1),colorspace=format=yuv420p:range=tv:primaries=bt709:trc=bt709:space=bt709:fast=0[ref];[main][ref]ssim=eof_action=endall:stats_file='D\\:/Convert/FFMetrics/logs/ssim_logfile-6.txt'" -f null -
Input #0, matroska,webm, from 'F:\Convert\files\[DC] Make Heroine ga Oosugiru - 07_Telegram_HEVC(292).mkv':
  Metadata:
    COMPATIBLE_BRANDS: isomiso2avc1mp41
    MAJOR_BRAND     : isom
    MINOR_VERSION   : 512
    ENCODER         : Lavf61.7.100
  Duration: 00:24:06.79, start: -0.021000, bitrate: 930 kb/s
  Stream #0:0: Video: hevc (Main 10), yuv420p10le(tv, bt709, progressive), 1920x1080 [SAR 1:1 DAR 16:9], 23.98 fps, 23.98 tbr, 1k tbn (default)
      Metadata:
        HANDLER_NAME    : VideoHandler
        VENDOR_ID       : [0][0][0][0]
        ENCODER         : Lavc61.19.100 libx265
        BPS             : 733505
        DURATION        : 00:24:06.569708333
        NUMBER_OF_FRAMES: 34683
        NUMBER_OF_BYTES : 132633348
        _STATISTICS_WRITING_APP: mkvpropedit v94.0 ('Initiate') 64-bit
        _STATISTICS_WRITING_DATE_UTC: 2026-03-31 06:46:21
        _STATISTICS_TAGS: BPS DURATION NUMBER_OF_FRAMES NUMBER_OF_BYTES
  Stream #0:1: Audio: aac (LC), 48000 Hz, stereo, fltp (default)
      Metadata:
        HANDLER_NAME    : SoundHandler
        VENDOR_ID       : [0][0][0][0]
        ENCODER         : Lavc61.19.100 aac
        BPS             : 193194
        DURATION        : 00:24:06.784000000
        NUMBER_OF_FRAMES: 67819
        NUMBER_OF_BYTES : 34938755
        _STATISTICS_WRITING_APP: mkvpropedit v94.0 ('Initiate') 64-bit
        _STATISTICS_WRITING_DATE_UTC: 2026-03-31 06:46:21
        _STATISTICS_TAGS: BPS DURATION NUMBER_OF_FRAMES NUMBER_OF_BYTES
Input #1, mov,mp4,m4a,3gp,3g2,mj2, from 'F:\Convert\files\[DC] Make Heroine ga Oosugiru - 07_Telegram.mp4':
  Metadata:
    major_brand     : isom
    minor_version   : 512
    compatible_brands: isomiso2avc1mp41
    encoder         : Lavf60.16.100
  Duration: 00:24:06.74, start: 0.000000, bitrate: 3764 kb/s
  Stream #1:0[0x1](und): Video: h264 (High) (avc1 / 0x31637661), yuv420p(tv, bt709, progressive), 1920x1080 [SAR 1:1 DAR 16:9], 3616 kb/s, 23.98 fps, 23.98 tbr, 24k tbn (default)
      Metadata:
        handler_name    : VideoHandler
        vendor_id       : [0][0][0][0]
        encoder         : Lavc60.31.102 h264_qsv
  Stream #1:1[0x2](und): Audio: aac (HE-AACv2) (mp4a / 0x6134706D), 48000 Hz, stereo, fltp, 144 kb/s (default)
      Metadata:
        handler_name    : SoundHandler
        vendor_id       : [0][0][0][0]
Stream mapping:
  Stream #0:0 (hevc) -> settb:default
  Stream #1:0 (h264) -> settb:default
  ssim:default -> Stream #0:0 (wrapped_avframe)
  Stream #0:1 -> #0:1 (aac (native) -> pcm_s16le (native))
Output #0, null, to 'pipe:':
  Metadata:
    COMPATIBLE_BRANDS: isomiso2avc1mp41
    MAJOR_BRAND     : isom
    MINOR_VERSION   : 512
    encoder         : Lavf61.7.100
  Stream #0:0: Video: wrapped_avframe, yuv420p10le(tv, bt709, progressive), 1920x1080 [SAR 1:1 DAR 16:9], q=2-31, 200 kb/s, 23.98 fps, 23.98 tbn
      Metadata:
        encoder         : Lavc61.19.100 wrapped_avframe
  Stream #0:1: Audio: pcm_s16le, 48000 Hz, stereo, s16, 1536 kb/s (default)
      Metadata:
        HANDLER_NAME    : SoundHandler
        VENDOR_ID       : [0][0][0][0]
        _STATISTICS_TAGS: BPS DURATION NUMBER_OF_FRAMES NUMBER_OF_BYTES
        BPS             : 193194
        DURATION        : 00:24:06.784000000
        NUMBER_OF_FRAMES: 67819
        NUMBER_OF_BYTES : 34938755
        _STATISTICS_WRITING_APP: mkvpropedit v94.0 ('Initiate') 64-bit
        _STATISTICS_WRITING_DATE_UTC: 2026-03-31 06:46:21
        encoder         : Lavc61.19.100 pcm_s16le
frame=  126 fps=0.0 q=-0.0 size=N/A time=00:00:05.25 bitrate=N/A speed=10.3x    frame=  299 fps=292 q=-0.0 size=N/A time=00:00:12.47 bitrate=N/A speed=12.2x    frame=  488 fps=314 q=-0.0 size=N/A time=00:00:20.35 bitrate=N/A speed=13.1x    frame=  679 fps=329 q=-0.0 size=N/A time=00:00:28.31 bitrate=N/A speed=13.7x    frame=  863 fps=335 q=-0.0 size=N/A time=00:00:35.99 bitrate=N/A speed=  14x    frame=  995 fps=322 q=-0.0 size=N/A time=00:00:41.49 bitrate=N/A speed=13.4x    frame= 1157 fps=320 q=-0.0 size=N/A time=00:00:48.25 bitrate=N/A speed=13.3x    frame= 1314 fps=318 q=-0.0 size=N/A time=00:00:54.80 bitrate=N/A speed=13.3x    frame= 1474 fps=318 q=-0.0 size=N/A time=00:01:01.47 bitrate=N/A speed=13.3x    frame= 1616 fps=314 q=-0.0 size=N/A time=00:01:07.40 bitrate=N/A speed=13.1x    frame= 1777 fps=313 q=-0.0 size=N/A time=00:01:14.11 bitrate=N/A speed=13.1x    frame= 1928 fps=312 q=-0.0 size=N/A time=00:01:20.41 bitrate=N/A speed=  13x    frame= 2066 fps=309 q=-0.0 size=N/A time=00:01:26.16 bitrate=N/A speed=12.9x    frame= 2207 fps=306 q=-0.0 size=N/A time=00:01:32.05 bitrate=N/A speed=12.7x    frame= 2359 fps=305 q=-0.0 size=N/A time=00:01:38.38 bitrate=N/A speed=12.7x    frame= 2486 fps=302 q=-0.0 size=N/A time=00:01:43.68 bitrate=N/A speed=12.6x    frame= 2646 fps=302 q=-0.0 size=N/A time=00:01:50.36 bitrate=N/A speed=12.6x    frame= 2824 fps=304 q=-0.0 size=N/A time=00:01:57.78 bitrate=N/A speed=12.7x    frame= 3000 fps=306 q=-0.0 size=N/A time=00:02:05.12 bitrate=N/A speed=12.8x    frame= 3189 fps=309 q=-0.0 size=N/A time=00:02:13.00 bitrate=N/A speed=12.9x    frame= 3377 fps=312 q=-0.0 size=N/A time=00:02:20.84 bitrate=N/A speed=  13x    frame= 3560 fps=314 q=-0.0 size=N/A time=00:02:28.48 bitrate=N/A speed=13.1x    frame= 3745 fps=316 q=-0.0 size=N/A time=00:02:36.19 bitrate=N/A speed=13.2x    frame= 3937 fps=318 q=-0.0 size=N/A time=00:02:44.20 bitrate=N/A speed=13.3x    frame= 4127 fps=320 q=-0.0 size=N/A time=00:02:52.13 bitrate=N/A speed=13.3x    frame= 4311 fps=321 q=-0.0 size=N/A time=00:02:59.80 bitrate=N/A speed=13.4x    frame= 4499 fps=323 q=-0.0 size=N/A time=00:03:07.64 bitrate=N/A speed=13.5x    frame= 4688 fps=324 q=-0.0 size=N/A time=00:03:15.52 bitrate=N/A speed=13.5x    frame= 4872 fps=325 q=-0.0 size=N/A time=00:03:23.20 bitrate=N/A speed=13.6x    frame= 5061 fps=327 q=-0.0 size=N/A time=00:03:31.08 bitrate=N/A speed=13.6x    frame= 5215 fps=326 q=-0.0 size=N/A time=00:03:37.50 bitrate=N/A speed=13.6x    frame= 5406 fps=327 q=-0.0 size=N/A time=00:03:45.47 bitrate=N/A speed=13.6x    frame= 5583 fps=327 q=-0.0 size=N/A time=00:03:52.85 bitrate=N/A speed=13.7x    frame= 5767 fps=328 q=-0.0 size=N/A time=00:04:00.53 bitrate=N/A speed=13.7x    frame= 5952 fps=329 q=-0.0 size=N/A time=00:04:08.24 bitrate=N/A speed=13.7x    frame= 6128 fps=330 q=-0.0 size=N/A time=00:04:15.58 bitrate=N/A speed=13.7x    frame= 6296 fps=330 q=-0.0 size=N/A time=00:04:22.59 bitrate=N/A speed=13.7x    frame= 6486 fps=330 q=-0.0 size=N/A time=00:04:30.52 bitrate=N/A speed=13.8x    frame= 6666 fps=331 q=-0.0 size=N/A time=00:04:38.02 bitrate=N/A speed=13.8x    frame= 6853 fps=332 q=-0.0 size=N/A time=00:04:45.82 bitrate=N/A speed=13.8x    frame= 7029 fps=332 q=-0.0 size=N/A time=00:04:53.16 bitrate=N/A speed=13.9x    frame= 7208 fps=332 q=-0.0 size=N/A time=00:05:00.63 bitrate=N/A speed=13.9x    frame= 7378 fps=332 q=-0.0 size=N/A time=00:05:07.72 bitrate=N/A speed=13.9x    frame= 7540 fps=332 q=-0.0 size=N/A time=00:05:14.48 bitrate=N/A speed=13.8x    frame= 7724 fps=332 q=-0.0 size=N/A time=00:05:22.15 bitrate=N/A speed=13.9x    frame= 7900 fps=333 q=-0.0 size=N/A time=00:05:29.49 bitrate=N/A speed=13.9x    frame= 8093 fps=334 q=-0.0 size=N/A time=00:05:37.54 bitrate=N/A speed=13.9x    frame= 8281 fps=334 q=-0.0 size=N/A time=00:05:45.38 bitrate=N/A speed=13.9x    frame= 8454 fps=334 q=-0.0 size=N/A time=00:05:52.60 bitrate=N/A speed=13.9x    frame= 8636 fps=335 q=-0.0 size=N/A time=00:06:00.19 bitrate=N/A speed=  14x    frame= 8820 fps=335 q=-0.0 size=N/A time=00:06:07.86 bitrate=N/A speed=  14x    frame= 9009 fps=336 q=-0.0 size=N/A time=00:06:15.75 bitrate=N/A speed=  14x    frame= 9189 fps=336 q=-0.0 size=N/A time=00:06:23.25 bitrate=N/A speed=  14x    frame= 9371 fps=336 q=-0.0 size=N/A time=00:06:30.84 bitrate=N/A speed=  14x    frame= 9562 fps=337 q=-0.0 size=N/A time=00:06:38.81 bitrate=N/A speed=  14x    frame= 9744 fps=337 q=-0.0 size=N/A time=00:06:46.40 bitrate=N/A speed=14.1x    frame= 9925 fps=337 q=-0.0 size=N/A time=00:06:53.95 bitrate=N/A speed=14.1x    frame=10105 fps=338 q=-0.0 size=N/A time=00:07:01.46 bitrate=N/A speed=14.1x    frame=10290 fps=338 q=-0.0 size=N/A time=00:07:09.17 bitrate=N/A speed=14.1x    frame=10477 fps=338 q=-0.0 size=N/A time=00:07:16.97 bitrate=N/A speed=14.1x    frame=10655 fps=338 q=-0.0 size=N/A time=00:07:24.40 bitrate=N/A speed=14.1x    frame=10826 fps=338 q=-0.0 size=N/A time=00:07:31.53 bitrate=N/A speed=14.1x    frame=10995 fps=338 q=-0.0 size=N/A time=00:07:38.58 bitrate=N/A speed=14.1x    frame=11162 fps=338 q=-0.0 size=N/A time=00:07:45.54 bitrate=N/A speed=14.1x    frame=11333 fps=338 q=-0.0 size=N/A time=00:07:52.68 bitrate=N/A speed=14.1x    frame=11512 fps=338 q=-0.0 size=N/A time=00:08:00.14 bitrate=N/A speed=14.1x    frame=11689 fps=338 q=-0.0 size=N/A time=00:08:07.52 bitrate=N/A speed=14.1x    frame=11856 fps=338 q=-0.0 size=N/A time=00:08:14.49 bitrate=N/A speed=14.1x    frame=12032 fps=338 q=-0.0 size=N/A time=00:08:21.83 bitrate=N/A speed=14.1x    frame=12205 fps=338 q=-0.0 size=N/A time=00:08:29.05 bitrate=N/A speed=14.1x    frame=12379 fps=338 q=-0.0 size=N/A time=00:08:36.30 bitrate=N/A speed=14.1x    frame=12552 fps=338 q=-0.0 size=N/A time=00:08:43.52 bitrate=N/A speed=14.1x    frame=12724 fps=338 q=-0.0 size=N/A time=00:08:50.69 bitrate=N/A speed=14.1x    frame=12888 fps=338 q=-0.0 size=N/A time=00:08:57.53 bitrate=N/A speed=14.1x    frame=13062 fps=338 q=-0.0 size=N/A time=00:09:04.79 bitrate=N/A speed=14.1x    frame=13228 fps=337 q=-0.0 size=N/A time=00:09:11.71 bitrate=N/A speed=14.1x    frame=13400 fps=337 q=-0.0 size=N/A time=00:09:18.89 bitrate=N/A speed=14.1x    frame=13574 fps=337 q=-0.0 size=N/A time=00:09:26.14 bitrate=N/A speed=14.1x    frame=13751 fps=337 q=-0.0 size=N/A time=00:09:33.53 bitrate=N/A speed=14.1x    frame=13913 fps=337 q=-0.0 size=N/A time=00:09:40.28 bitrate=N/A speed=14.1x    frame=14078 fps=337 q=-0.0 size=N/A time=00:09:47.16 bitrate=N/A speed=14.1x    frame=14247 fps=337 q=-0.0 size=N/A time=00:09:54.21 bitrate=N/A speed=  14x    frame=14413 fps=337 q=-0.0 size=N/A time=00:10:01.14 bitrate=N/A speed=  14x    frame=14591 fps=337 q=-0.0 size=N/A time=00:10:08.56 bitrate=N/A speed=  14x    frame=14768 fps=337 q=-0.0 size=N/A time=00:10:15.94 bitrate=N/A speed=  14x    frame=14951 fps=337 q=-0.0 size=N/A time=00:10:23.58 bitrate=N/A speed=14.1x    frame=15119 fps=337 q=-0.0 size=N/A time=00:10:30.58 bitrate=N/A speed=  14x    frame=15286 fps=337 q=-0.0 size=N/A time=00:10:37.55 bitrate=N/A speed=  14x    frame=15468 fps=337 q=-0.0 size=N/A time=00:10:45.14 bitrate=N/A speed=14.1x    frame=15650 fps=337 q=-0.0 size=N/A time=00:10:52.73 bitrate=N/A speed=14.1x    frame=15833 fps=337 q=-0.0 size=N/A time=00:11:00.36 bitrate=N/A speed=14.1x    frame=16008 fps=337 q=-0.0 size=N/A time=00:11:07.66 bitrate=N/A speed=14.1x    frame=16192 fps=337 q=-0.0 size=N/A time=00:11:15.34 bitrate=N/A speed=14.1x    frame=16372 fps=338 q=-0.0 size=N/A time=00:11:22.84 bitrate=N/A speed=14.1x    frame=16553 fps=338 q=-0.0 size=N/A time=00:11:30.39 bitrate=N/A speed=14.1x    frame=16731 fps=338 q=-0.0 size=N/A time=00:11:37.82 bitrate=N/A speed=14.1x    frame=16919 fps=338 q=-0.0 size=N/A time=00:11:45.66 bitrate=N/A speed=14.1x    frame=17094 fps=338 q=-0.0 size=N/A time=00:11:52.96 bitrate=N/A speed=14.1x    frame=17276 fps=338 q=-0.0 size=N/A time=00:12:00.55 bitrate=N/A speed=14.1x    frame=17459 fps=338 q=-0.0 size=N/A time=00:12:08.18 bitrate=N/A speed=14.1x    frame=17636 fps=338 q=-0.0 size=N/A time=00:12:15.56 bitrate=N/A speed=14.1x    frame=17819 fps=339 q=-0.0 size=N/A time=00:12:23.20 bitrate=N/A speed=14.1x    frame=17996 fps=339 q=-0.0 size=N/A time=00:12:30.58 bitrate=N/A speed=14.1x    frame=18182 fps=339 q=-0.0 size=N/A time=00:12:38.34 bitrate=N/A speed=14.1x    frame=18352 fps=339 q=-0.0 size=N/A time=00:12:45.43 bitrate=N/A speed=14.1x    frame=18533 fps=339 q=-0.0 size=N/A time=00:12:52.98 bitrate=N/A speed=14.1x    frame=18725 fps=339 q=-0.0 size=N/A time=00:13:00.98 bitrate=N/A speed=14.1x    frame=18909 fps=339 q=-0.0 size=N/A time=00:13:08.66 bitrate=N/A speed=14.2x    frame=19092 fps=339 q=-0.0 size=N/A time=00:13:16.29 bitrate=N/A speed=14.2x    frame=19285 fps=340 q=-0.0 size=N/A time=00:13:24.34 bitrate=N/A speed=14.2x    frame=19470 fps=340 q=-0.0 size=N/A time=00:13:32.06 bitrate=N/A speed=14.2x    frame=19653 fps=340 q=-0.0 size=N/A time=00:13:39.69 bitrate=N/A speed=14.2x    frame=19835 fps=340 q=-0.0 size=N/A time=00:13:47.28 bitrate=N/A speed=14.2x    frame=20026 fps=340 q=-0.0 size=N/A time=00:13:55.25 bitrate=N/A speed=14.2x    frame=20213 fps=341 q=-0.0 size=N/A time=00:14:03.05 bitrate=N/A speed=14.2x    frame=20394 fps=341 q=-0.0 size=N/A time=00:14:10.59 bitrate=N/A speed=14.2x    frame=20568 fps=341 q=-0.0 size=N/A time=00:14:17.85 bitrate=N/A speed=14.2x    frame=20751 fps=341 q=-0.0 size=N/A time=00:14:25.48 bitrate=N/A speed=14.2x    frame=20924 fps=341 q=-0.0 size=N/A time=00:14:32.70 bitrate=N/A speed=14.2x    frame=21104 fps=341 q=-0.0 size=N/A time=00:14:40.21 bitrate=N/A speed=14.2x    frame=21287 fps=341 q=-0.0 size=N/A time=00:14:47.84 bitrate=N/A speed=14.2x    frame=21470 fps=341 q=-0.0 size=N/A time=00:14:55.47 bitrate=N/A speed=14.2x    frame=21658 fps=341 q=-0.0 size=N/A time=00:15:03.31 bitrate=N/A speed=14.2x    frame=21840 fps=341 q=-0.0 size=N/A time=00:15:10.91 bitrate=N/A speed=14.2x    frame=22018 fps=341 q=-0.0 size=N/A time=00:15:18.33 bitrate=N/A speed=14.2x    frame=22192 fps=341 q=-0.0 size=N/A time=00:15:25.59 bitrate=N/A speed=14.2x    frame=22372 fps=341 q=-0.0 size=N/A time=00:15:33.09 bitrate=N/A speed=14.2x    frame=22556 fps=341 q=-0.0 size=N/A time=00:15:40.77 bitrate=N/A speed=14.2x    frame=22736 fps=342 q=-0.0 size=N/A time=00:15:48.28 bitrate=N/A speed=14.2x    frame=22920 fps=342 q=-0.0 size=N/A time=00:15:55.95 bitrate=N/A speed=14.2x    frame=23104 fps=342 q=-0.0 size=N/A time=00:16:03.62 bitrate=N/A speed=14.3x    frame=23286 fps=342 q=-0.0 size=N/A time=00:16:11.22 bitrate=N/A speed=14.3x    frame=23466 fps=342 q=-0.0 size=N/A time=00:16:18.72 bitrate=N/A speed=14.3x    frame=23654 fps=342 q=-0.0 size=N/A time=00:16:26.56 bitrate=N/A speed=14.3x    frame=23840 fps=342 q=-0.0 size=N/A time=00:16:34.32 bitrate=N/A speed=14.3x    frame=24028 fps=342 q=-0.0 size=N/A time=00:16:42.16 bitrate=N/A speed=14.3x    frame=24207 fps=342 q=-0.0 size=N/A time=00:16:49.63 bitrate=N/A speed=14.3x    frame=24394 fps=343 q=-0.0 size=N/A time=00:16:57.43 bitrate=N/A speed=14.3x    frame=24580 fps=343 q=-0.0 size=N/A time=00:17:05.19 bitrate=N/A speed=14.3x    frame=24766 fps=343 q=-0.0 size=N/A time=00:17:12.94 bitrate=N/A speed=14.3x    frame=24948 fps=343 q=-0.0 size=N/A time=00:17:20.53 bitrate=N/A speed=14.3x    frame=25127 fps=343 q=-0.0 size=N/A time=00:17:28.00 bitrate=N/A speed=14.3x    frame=25306 fps=343 q=-0.0 size=N/A time=00:17:35.47 bitrate=N/A speed=14.3x    frame=25491 fps=343 q=-0.0 size=N/A time=00:17:43.18 bitrate=N/A speed=14.3x    frame=25670 fps=343 q=-0.0 size=N/A time=00:17:50.65 bitrate=N/A speed=14.3x    frame=25843 fps=343 q=-0.0 size=N/A time=00:17:57.86 bitrate=N/A speed=14.3x    frame=26017 fps=343 q=-0.0 size=N/A time=00:18:05.12 bitrate=N/A speed=14.3x    frame=26192 fps=343 q=-0.0 size=N/A time=00:18:12.42 bitrate=N/A speed=14.3x    frame=26377 fps=343 q=-0.0 size=N/A time=00:18:20.14 bitrate=N/A speed=14.3x    frame=26565 fps=343 q=-0.0 size=N/A time=00:18:27.98 bitrate=N/A speed=14.3x    frame=26750 fps=343 q=-0.0 size=N/A time=00:18:35.69 bitrate=N/A speed=14.3x    frame=26936 fps=343 q=-0.0 size=N/A time=00:18:43.45 bitrate=N/A speed=14.3x    frame=27099 fps=343 q=-0.0 size=N/A time=00:18:50.25 bitrate=N/A speed=14.3x    frame=27261 fps=343 q=-0.0 size=N/A time=00:18:57.01 bitrate=N/A speed=14.3x    frame=27433 fps=343 q=-0.0 size=N/A time=00:19:04.18 bitrate=N/A speed=14.3x    frame=27611 fps=343 q=-0.0 size=N/A time=00:19:11.60 bitrate=N/A speed=14.3x    frame=27788 fps=343 q=-0.0 size=N/A time=00:19:18.99 bitrate=N/A speed=14.3x    frame=27948 fps=343 q=-0.0 size=N/A time=00:19:25.66 bitrate=N/A speed=14.3x    frame=28106 fps=343 q=-0.0 size=N/A time=00:19:32.25 bitrate=N/A speed=14.3x    frame=28269 fps=342 q=-0.0 size=N/A time=00:19:39.05 bitrate=N/A speed=14.3x    frame=28450 fps=342 q=-0.0 size=N/A time=00:19:46.60 bitrate=N/A speed=14.3x    frame=28632 fps=343 q=-0.0 size=N/A time=00:19:54.19 bitrate=N/A speed=14.3x    frame=28803 fps=342 q=-0.0 size=N/A time=00:20:01.32 bitrate=N/A speed=14.3x    frame=28980 fps=342 q=-0.0 size=N/A time=00:20:08.70 bitrate=N/A speed=14.3x    frame=29149 fps=342 q=-0.0 size=N/A time=00:20:15.75 bitrate=N/A speed=14.3x    frame=29330 fps=342 q=-0.0 size=N/A time=00:20:23.30 bitrate=N/A speed=14.3x    frame=29496 fps=342 q=-0.0 size=N/A time=00:20:30.22 bitrate=N/A speed=14.3x    frame=29668 fps=342 q=-0.0 size=N/A time=00:20:37.40 bitrate=N/A speed=14.3x    frame=29847 fps=342 q=-0.0 size=N/A time=00:20:44.86 bitrate=N/A speed=14.3x    frame=30007 fps=342 q=-0.0 size=N/A time=00:20:51.54 bitrate=N/A speed=14.3x    frame=30178 fps=342 q=-0.0 size=N/A time=00:20:58.67 bitrate=N/A speed=14.3x    frame=30360 fps=342 q=-0.0 size=N/A time=00:21:06.26 bitrate=N/A speed=14.3x    frame=30539 fps=342 q=-0.0 size=N/A time=00:21:13.73 bitrate=N/A speed=14.3x    frame=30717 fps=342 q=-0.0 size=N/A time=00:21:21.15 bitrate=N/A speed=14.3x    frame=30901 fps=342 q=-0.0 size=N/A time=00:21:28.82 bitrate=N/A speed=14.3x    frame=31086 fps=342 q=-0.0 size=N/A time=00:21:36.54 bitrate=N/A speed=14.3x    frame=31263 fps=342 q=-0.0 size=N/A time=00:21:43.92 bitrate=N/A speed=14.3x    frame=31454 fps=342 q=-0.0 size=N/A time=00:21:51.89 bitrate=N/A speed=14.3x    frame=31635 fps=343 q=-0.0 size=N/A time=00:21:59.44 bitrate=N/A speed=14.3x    frame=31805 fps=342 q=-0.0 size=N/A time=00:22:06.53 bitrate=N/A speed=14.3x    frame=31978 fps=342 q=-0.0 size=N/A time=00:22:13.74 bitrate=N/A speed=14.3x    frame=32159 fps=342 q=-0.0 size=N/A time=00:22:21.29 bitrate=N/A speed=14.3x    frame=32346 fps=343 q=-0.0 size=N/A time=00:22:29.09 bitrate=N/A speed=14.3x    frame=32523 fps=343 q=-0.0 size=N/A time=00:22:36.48 bitrate=N/A speed=14.3x    frame=32691 fps=342 q=-0.0 size=N/A time=00:22:43.48 bitrate=N/A speed=14.3x    frame=32846 fps=342 q=-0.0 size=N/A time=00:22:49.95 bitrate=N/A speed=14.3x    frame=33020 fps=342 q=-0.0 size=N/A time=00:22:57.20 bitrate=N/A speed=14.3x    frame=33199 fps=342 q=-0.0 size=N/A time=00:23:04.67 bitrate=N/A speed=14.3x    frame=33383 fps=342 q=-0.0 size=N/A time=00:23:12.34 bitrate=N/A speed=14.3x    frame=33544 fps=342 q=-0.0 size=N/A time=00:23:19.06 bitrate=N/A speed=14.3x    frame=33693 fps=342 q=-0.0 size=N/A time=00:23:25.27 bitrate=N/A speed=14.3x    frame=33826 fps=341 q=-0.0 size=N/A time=00:23:30.82 bitrate=N/A speed=14.2x    frame=33963 fps=341 q=-0.0 size=N/A time=00:23:36.54 bitrate=N/A speed=14.2x    frame=34129 fps=341 q=-0.0 size=N/A time=00:23:43.46 bitrate=N/A speed=14.2x    frame=34283 fps=341 q=-0.0 size=N/A time=00:23:49.88 bitrate=N/A speed=14.2x    frame=34408 fps=340 q=-0.0 size=N/A time=00:23:55.10 bitrate=N/A speed=14.2x    frame=34551 fps=340 q=-0.0 size=N/A time=00:24:01.06 bitrate=N/A speed=14.2x    [Parsed_ssim_16 @ 000001b70b4e3ac0] SSIM Y:0.993832 (22.098740) U:0.993981 (22.204718) V:0.993584 (21.927591) All:0.993816 (22.087110)
[out#0/null @ 000001b77eb3dec0] video:14903KiB audio:271276KiB subtitle:0KiB other streams:0KiB global headers:0KiB muxing overhead: unknown
frame=34683 fps=340 q=-0.0 Lsize=N/A time=00:24:06.57 bitrate=N/A speed=14.2x    
